HIERARCHY
ROOT Hips
{
     OFFSET 12.77890 99.59780 -77.08050
     CHANNELS 6 Xposition Yposition Zposition Zrotation Xrotation Yrotation
     JOINT Spine
     {
          OFFSET 0.00000 11.89050 0.00000
          CHANNELS 3 Zrotation Xrotation Yrotation
          JOINT Spine1
          {
               OFFSET -0.00000 25.65740 0.12766
               CHANNELS 3 Zrotation Xrotation Yrotation
               JOINT HEad
               {
                    OFFSET -0.00000 8.73416 0.01134
                    CHANNELS 3 Zrotation Xrotation Yrotation
                    End Site
                    {
                         OFFSET -0.29000 12.77420 2.51395
                    }
               }
               JOINT LeftShoulder1
               {
                    OFFSET 8.99000 -0.36225 -0.22000
                    CHANNELS 3 Zrotation Xrotation Yrotation
                    JOINT LeftArm
                    {
                         OFFSET 10.28270 -0.00338 0.32212
                         CHANNELS 3 Zrotation Xrotation Yrotation
                         JOINT LeftForeArm
                         {
                              OFFSET 32.76690 0.09914 -1.42434
                              CHANNELS 3 Zrotation Xrotation Yrotation
                              JOINT LeftHand
                              {
                                   OFFSET 27.56430 0.08536 1.02216
                                   CHANNELS 3 Zrotation Xrotation Yrotation
                                   End Site
                                   {
                                        OFFSET 16.74430 -0.60000 1.50291
                                   }
                              }
                         }
                    }
               }
               JOINT RightShoulder
               {
                    OFFSET -8.99000 -0.36225 -0.22000
                    CHANNELS 3 Zrotation Xrotation Yrotation
                    JOINT RightArm
                    {
                         OFFSET -10.28270 -0.00338 0.32212
                         CHANNELS 3 Zrotation Xrotation Yrotation
                         JOINT RightForeArm
                         {
                              OFFSET -32.89710 0.09914 -1.42434
                              CHANNELS 3 Zrotation Xrotation Yrotation
                              JOINT RightHand
                              {
                                   OFFSET -27.49210 0.08536 1.02216
                                   CHANNELS 3 Zrotation Xrotation Yrotation
                                   End Site
                                   {
                                        OFFSET -16.63120 -0.60000 1.50291
                                   }
                              }
                         }
                    }
               }
          }
     }
     JOINT LeftUpLeg
     {
          OFFSET 8.94580 -8.66707 0.10165
          CHANNELS 3 Zrotation Xrotation Yrotation
          JOINT LeftLeg
          {
               OFFSET 0.00000 -44.42270 1.37270
               CHANNELS 3 Zrotation Xrotation Yrotation
               JOINT LeftFoot
               {
                    OFFSET -0.25355 -42.09240 -1.46059
                    CHANNELS 3 Zrotation Xrotation Yrotation
                    JOINT LeftToes
                    {
                         OFFSET -0.04000 -4.41509 8.49910
                         CHANNELS 3 Zrotation Xrotation Yrotation
                         End Site
                         {
                              OFFSET 0.08000 -0.04745 9.77979
                         }
                    }
               }
          }
     }
     JOINT RightUpLeg
     {
          OFFSET -8.94580 -8.66707 0.10165
          CHANNELS 3 Zrotation Xrotation Yrotation
          JOINT RightLeg
          {
               OFFSET -0.00000 -44.42270 1.37270
               CHANNELS 3 Zrotation Xrotation Yrotation
               JOINT RightFoot
               {
                    OFFSET 0.25355 -42.09240 -1.46059
                    CHANNELS 3 Zrotation Xrotation Yrotation
                    JOINT RightToes
                    {
                         OFFSET 0.04000 -4.41509 8.49910
                         CHANNELS 3 Zrotation Xrotation Yrotation
                         End Site
                         {
                              OFFSET -0.08000 -0.13745 9.77979
                         }
                    }
               }
          }
     }
}
MOTION
Frames: 14
Frame Time: 0.01667
19.62740 85.36630 17.46380 -3.72195 -2.78291 -59.46040 -4.04775 11.84430 3.03659 -3.64939 23.16710 4.80100 5.83697 -12.42200 45.35460 -0.00000 -0.00000 0.00000 -10.26320 -40.17800 -33.44910 1.12674 -10.34340 -46.01520 5.55594 9.67997 -0.87718 27.26180 2.68976 7.01429 20.42400 -20.19920 25.92390 5.02226 25.99650 120.38600 -5.55712 9.68432 0.87760 21.67510 -30.77390 4.47600 10.34890 44.60140 -32.35950 -23.83260 -4.29648 0.72225 0.40661 -28.77110 -13.11320 -29.34730 -14.82620 -10.24330 12.53850 78.29430 11.59010 30.78520 -36.47280 8.06709 3.42960 5.74260 2.18465 
19.91610 86.28760 19.68760 -2.88739 -3.09824 -60.27950 -4.04603 11.70770 3.61275 -4.45994 22.97460 6.34491 5.57444 -11.79030 43.28660 -0.00000 -0.00000 0.00000 -20.58590 -47.17260 -34.32660 -4.32249 -1.78575 -56.62690 5.55594 9.67997 -0.87718 26.88830 2.63424 6.92932 21.85450 -18.65820 25.01110 4.97490 25.63480 119.53100 -5.55712 9.68432 0.87760 19.66740 -30.56110 4.35106 10.57030 44.79710 -32.75390 -24.77400 -4.60216 0.68586 0.42464 -28.36120 -13.88560 -28.25560 -13.71070 -8.99293 10.59080 72.44070 11.47190 30.62600 -34.87480 7.53464 1.16499 2.96295 2.93485 
20.18480 87.21330 21.67350 -2.01900 -3.48968 -61.02660 -4.21246 11.50390 4.12375 -5.46084 22.60390 7.68817 5.70610 -11.20620 41.52970 -0.00000 -0.00000 0.00000 -29.79380 -53.67140 -35.54790 -8.33451 6.47057 -64.62540 5.55594 9.67997 -0.87718 25.96140 2.49670 6.70900 23.83470 -17.68800 25.50830 5.96368 26.33140 117.66500 -5.55712 9.68432 0.87760 17.65780 -30.17110 3.96369 10.70640 44.23740 -33.31700 -26.30110 -4.55174 0.74027 0.43427 -28.02730 -14.89060 -27.14330 -12.38300 -7.53084 8.65477 66.67300 10.12430 30.27430 -33.26590 6.96083 -0.94525 0.06506 3.14028 
20.43920 88.09890 23.43900 -1.14750 -3.91113 -61.56240 -4.49034 11.24400 4.57496 -6.53790 22.08520 8.83925 6.14149 -10.59870 39.99100 -0.00000 -0.00000 0.00000 -38.71010 -59.81870 -38.27490 -11.47740 13.79730 -70.74090 5.55594 9.67997 -0.87718 24.64640 2.31113 6.40532 26.05260 -17.55680 27.22380 7.75423 27.78490 115.19800 -5.55712 9.68432 0.87760 15.61550 -29.69300 3.22989 10.93920 43.03970 -34.25310 -28.27490 -4.33818 0.84958 0.44521 -27.69470 -16.12380 -26.10840 -10.93920 -5.95818 6.88582 61.37280 7.62574 29.75590 -31.89140 6.43211 -2.40725 -2.25401 2.66492 
20.68060 88.92520 25.01330 -0.29841 -4.28252 -61.77690 -4.80180 10.93880 4.97847 -7.54872 21.45160 9.82467 6.72601 -9.88862 38.57770 -0.00000 -0.00000 0.00000 -49.38720 -65.57420 -44.58710 -14.25590 20.38960 -75.37740 5.55594 9.67997 -0.87718 23.13760 2.11122 6.06881 28.29580 -18.36290 29.92920 9.98280 29.58040 112.53000 -5.55712 9.68432 0.87760 13.54410 -29.16010 2.09637 11.37490 41.30980 -35.61510 -30.37370 -4.32339 0.91858 0.51268 -27.01730 -17.32110 -25.22520 -9.45719 -4.38050 5.47436 56.74260 4.17237 29.17620 -30.86370 6.00528 -2.87306 -3.39776 1.70098 
20.90960 89.68280 26.42460 0.50843 -4.51942 -61.60770 -5.08279 10.60100 5.33944 -8.35859 20.73910 10.65630 7.29365 -9.05074 37.24250 -0.00000 -0.00000 0.00000 -64.93710 -70.22940 -57.41570 -17.00740 26.49870 -78.66500 5.55594 9.67997 -0.87718 21.62190 1.92208 5.73677 30.47580 -20.09850 33.40740 12.29530 31.40490 109.98400 -5.55712 9.68432 0.87760 11.49950 -28.57930 0.59588 12.01670 39.18290 -37.28320 -32.16710 -4.89114 0.81456 0.71005 -25.57760 -18.09460 -24.54430 -7.99913 -2.90992 4.58919 52.82390 0.09783 28.69500 -30.17500 5.70696 -2.29081 -3.18486 0.59469 
21.13010 90.36720 27.69370 1.25272 -4.56245 -61.04740 -5.29299 10.24580 5.64688 -8.87209 19.98710 11.31670 7.71170 -8.13245 36.00020 -0.00000 -0.00000 0.00000 -78.21050 -70.86680 -69.69240 -19.06270 29.07320 -81.75100 5.55594 9.67997 -0.87718 20.23760 1.75728 5.42995 32.65090 -22.65460 37.50650 14.47550 33.11360 107.72200 -5.55712 9.68432 0.87760 9.57838 -27.95920 -1.12718 12.78440 36.82870 -39.02040 -33.23750 -6.24624 0.44539 1.06156 -23.12800 -18.13290 -24.09070 -6.60696 -1.65465 4.31937 49.53640 -4.15428 28.45170 -29.73670 5.53459 -0.90919 -1.87501 -0.39608 
21.35150 90.97930 28.83300 1.90935 -4.39640 -60.13930 -5.41204 9.89182 5.87557 -9.05056 19.24110 11.76610 7.90054 -7.23295 34.91050 -0.00000 -0.00000 0.00000 -89.48270 -69.50590 -81.19090 -20.83160 30.90870 -84.03720 5.55594 9.67997 -0.87718 19.04700 1.61982 5.15491 35.02930 -25.78320 42.17680 16.45370 34.66230 105.72000 -5.55712 9.68432 0.87760 7.88002 -27.32720 -2.84056 13.56150 34.43010 -40.59120 -33.31130 -8.31174 -0.16289 1.49655 -19.71590 -17.33900 -23.86190 -5.29908 -0.69940 4.62716 46.73480 -8.09518 28.49840 -29.41820 5.45796 0.85252 0.01521 -1.18592 
21.58830 91.52420 29.85020 2.45066 -4.05117 -58.96520 -5.43083 9.56092 5.99803 -8.91064 18.55230 11.96530 7.83039 -6.46096 34.04080 -0.00000 -0.00000 0.00000 -97.66780 -66.85480 -90.50260 -22.35960 32.52020 -85.40670 5.55594 9.67997 -0.87718 18.03820 1.50569 4.90905 37.90650 -29.08500 47.44740 18.22250 36.02650 103.85200 -5.55712 9.68432 0.87760 6.46637 -26.73330 -4.29513 14.24310 32.15550 -41.87870 -32.35220 -10.78070 -0.86655 1.88278 -15.65830 -15.84440 -23.82560 -4.07560 -0.08477 5.34362 44.27620 -11.27310 28.79120 -29.07610 5.42587 2.57105 1.93303 -1.79626 
21.85540 92.01110 30.75510 2.85388 -3.58661 -57.62980 -5.34618 9.27497 5.99949 -8.50722 17.96960 11.90090 7.50914 -5.89084 33.42790 -0.00000 -0.00000 0.00000 -102.49200 -63.57010 -97.11220 -23.56410 33.81430 -85.97860 5.55594 9.67997 -0.87718 17.15450 1.40821 4.68646 41.53100 -32.07380 53.32520 19.76340 37.18080 102.00200 -5.55712 9.68432 0.87760 5.34394 -26.23040 -5.31321 14.76950 30.12790 -42.91330 -30.60150 -13.25630 -1.48952 2.11226 -11.41550 -13.94510 -23.92450 -2.93182 0.20515 6.21903 42.06910 -13.35840 29.23780 -28.58020 5.38062 3.93671 3.45725 -2.26741 
22.16210 92.45070 31.56420 3.10554 -3.06684 -56.24980 -5.15400 9.04918 5.88837 -7.90997 17.52690 11.60320 6.97207 -5.53009 33.05660 -0.00000 -0.00000 0.00000 -104.83900 -60.25160 -101.67900 -24.38870 34.72510 -85.91060 5.55594 9.67997 -0.87718 16.33270 1.32161 4.48317 45.95590 -34.30730 59.66440 21.03700 38.11860 100.13600 -5.55712 9.68432 0.87760 4.48243 -25.84880 -5.85027 15.13380 28.41170 -43.79560 -28.54160 -15.39050 -1.92451 2.16622 -7.44234 -12.02370 -24.08490 -1.87275 0.24074 7.00640 40.08590 -14.21290 29.76020 -27.84120 5.27789 4.80585 4.38928 -2.61909 
22.50830 92.85690 32.29790 3.20423 -2.54204 -54.94530 -4.85897 8.88763 5.69838 -7.18675 17.23230 11.14770 6.27463 -5.31020 32.86150 -0.00000 -0.00000 0.00000 -105.61300 -57.28240 -104.89600 -24.80060 35.21940 -85.37880 5.55594 9.67997 -0.87718 15.53030 1.24277 4.29940 50.97330 -35.51600 66.10930 22.01140 38.86780 98.29420 -5.55712 9.68432 0.87760 3.84648 -25.57550 -5.99963 15.35850 27.00530 -44.57550 -26.73870 -16.96490 -2.17020 2.11523 -4.08468 -10.45400 -24.23460 -0.91749 0.12976 7.53377 38.33350 -13.91970 30.33520 -26.83320 5.10126 5.20603 4.76633 -2.85626 
22.88350 93.24520 32.97610 3.15927 -2.04148 -53.83090 -4.48298 8.78233 5.48101 -6.39679 17.06510 10.64060 5.48475 -5.10295 32.74800 -0.00000 -0.00000 0.00000 -105.41100 -54.83500 -107.17300 -24.79250 35.30120 -84.54990 5.55594 9.67997 -0.87718 14.73740 1.17130 4.13902 56.18940 -35.66350 72.17490 22.68800 39.47960 96.54730 -5.55712 9.68432 0.87760 3.41918 -25.35550 -5.93870 15.45990 25.85670 -45.18990 -25.60220 -17.90840 -2.28770 2.06294 -1.55178 -9.49050 -24.32220 -0.09210 -0.01149 7.73401 36.81270 -12.75040 30.99470 -25.59500 4.86258 5.29960 4.80069 -2.99132 
23.27140 93.62890 33.61470 2.98809 -1.57705 -53.00290 -4.06254 8.71587 5.29053 -5.59101 16.98320 10.19070 4.67094 -4.75732 32.62380 -0.00000 -0.00000 0.00000 -104.57900 -52.93080 -108.70000 -24.39600 35.01490 -83.55490 5.55594 9.67997 -0.87718 13.97430 1.10852 4.00700 61.18600 -34.91450 77.41700 23.10120 40.00360 94.96200 -5.55712 9.68432 0.87760 3.20331 -25.11190 -5.84698 15.43090 24.89140 -45.50310 -25.23060 -18.27160 -2.33436 2.08082 0.08767 -9.19371 -24.32870 0.58320 -0.09231 7.62774 35.49790 -11.07510 31.79470 -24.20680 4.58830 5.31115 4.76580 -3.06632 
